<?xml version="1.0" encoding="utf-8"?>
<!-- Generator: Adobe Illustrator 22.0.1, SVG Export Plug-In . SVG Version: 6.00 Build 0)  -->
<svg version="1.1" id="Layer_1" xmlns="http://www.w3.org/2000/svg" xmlns:xlink="http://www.w3.org/1999/xlink" x="0px" y="0px"
	 viewBox="0 0 70 67" style="enable-background:new 0 0 70 67;" xml:space="preserve">
<title>06_weather_sunrise_up</title>
<g>
	<rect x="33" width="4" height="10"/>
	<rect x="11.8" y="8.8" transform="matrix(0.7071 -0.7071 0.7071 0.7071 -5.7087 13.7864)" width="4" height="10"/>
	<rect y="33" width="10" height="4"/>
	<rect x="60" y="33" width="10" height="4"/>
	<rect x="51.2" y="11.8" transform="matrix(0.7071 -0.7071 0.7071 0.7071 6.7142 43.787)" width="10" height="4"/>
	<rect x="15" y="41" width="40" height="4"/>
	<rect x="15" y="41" width="40" height="4"/>
	<polygon points="24.5,58.6 27.5,61.3 33,55.3 33,67 37,67 37,55.3 42.5,61.3 45.5,58.6 35,47.2 	"/>
	<path d="M22.2,37c-1.2-7.1,3.6-13.8,10.7-14.9c7.1-1.2,13.8,3.6,14.9,10.7c0.2,1.4,0.2,2.8,0,4.2h4c1.2-9.3-5.5-17.8-14.8-19
		c-9.3-1.2-17.8,5.5-19,14.8c-0.2,1.4-0.2,2.8,0,4.2H22.2z"/>
</g>
</svg>
