<svg xmlns="http://www.w3.org/2000/svg" viewBox="0 0 80 100" x="0px" y="0px"><title>07_weather_sunset_down</title><g data-name="Layer 2"><rect x="38" y="7" width="4" height="10"/><rect x="16.79" y="15.79" width="4" height="10" transform="translate(-9.2 19.37) rotate(-45)"/><rect x="5" y="40" width="10" height="4"/><rect x="65" y="40" width="10" height="4"/><rect x="56.21" y="18.79" width="10" height="4" transform="translate(3.23 49.37) rotate(-45)"/><rect x="20" y="48" width="40" height="4"/><polygon points="42 67.26 42 55.17 38 55.17 38 67.26 32.47 61.25 29.53 63.96 40 75.35 50.47 63.96 47.53 61.25 42 67.26"/><path d="M27.17,44a13,13,0,1,1,25.66,0h4a17,17,0,1,0-33.74,0Z"/></g></svg>